<?xml version="1.0" standalone="no"?>
<!DOCTYPE svg PUBLIC "-//W3C//DTD SVG 20010904//EN"
 "http://www.w3.org/TR/2001/REC-SVG-20010904/DTD/svg10.dtd">
<svg version="1.0" xmlns="http://www.w3.org/2000/svg"
 width="200.000000pt" height="200.000000pt" viewBox="0 0 200.000000 200.000000"
 preserveAspectRatio="xMidYMid meet">
<metadata>
Created by potrace 1.14, written by Peter Selinger 2001-2017
</metadata>
<g transform="translate(0.000000,200.000000) scale(0.100000,-0.100000)"
fill="#000000" stroke="none">
<path d="M1449 1916 c-2 -2 -26 -7 -54 -11 -27 -3 -51 -8 -53 -9 -3 -4 200
-194 211 -197 4 -1 34 2 67 5 l60 7 -101 97 c-101 97 -123 115 -130 108z"/>
<path d="M668 1879 c-11 -7 -98 -231 -93 -237 3 -3 27 -9 46 -11 3 -1 4 -12 1
-26 -5 -27 -12 -27 -128 -10 -29 4 -36 -2 -72 -66 -37 -65 -38 -69 -17 -69 13
0 14 -4 4 -21 -6 -12 -7 -19 -2 -16 7 5 139 11 170 8 6 -1 9 -10 6 -21 -5 -19
0 -20 91 -20 57 0 96 -4 96 -10 0 -5 -4 -10 -9 -10 -11 0 -31 -86 -36 -160 -3
-30 -7 -65 -9 -77 -5 -23 -4 -23 104 -23 l109 0 6 48 c4 26 8 51 9 57 2 5 23
10 47 11 l44 0 1 41 c1 54 11 76 29 69 8 -3 15 0 16 7 1 21 1 101 0 115 -1 10
-28 12 -113 10 l-112 -3 -1 -30 c0 -26 -4 -30 -32 -33 -43 -4 -44 -18 12 226
5 18 12 22 48 22 39 0 44 3 65 42 12 23 20 44 16 47 -3 3 -24 6 -47 7 -61 2
-62 3 -49 16 7 7 32 12 56 13 36 0 48 5 70 32 14 17 26 33 26 35 0 2 -28 2
-61 0 l-62 -4 5 26 5 26 -114 -2 c-63 -2 -120 -6 -125 -9z"/>
<path d="M1196 1829 c-22 -5 -42 -11 -44 -13 -2 -2 24 -18 57 -35 55 -27 65
-30 108 -22 47 9 49 8 114 -40 41 -30 80 -51 105 -55 l39 -6 -59 46 c-32 26
-70 49 -83 52 -13 4 -58 24 -100 45 -83 42 -79 41 -137 28z"/>
<path d="M535 1726 c-16 -7 -50 -32 -75 -54 -25 -23 -48 -42 -52 -42 -5 0 -8
-4 -8 -9 0 -20 57 12 115 64 33 30 58 54 55 54 -3 0 -18 -6 -35 -13z"/>
<path d="M1024 1689 c-2 -4 1 -32 7 -63 l12 -56 63 0 c53 0 65 -3 78 -22 14
-20 23 -22 113 -19 54 1 99 4 101 5 1 2 -9 29 -23 61 -24 54 -27 57 -56 53
-25 -4 -32 -1 -40 19 -8 21 -15 23 -81 24 -40 1 -95 2 -121 3 -27 1 -50 -2
-53 -5z"/>
<path d="M1829 1463 l67 -158 38 -3 c29 -3 37 0 33 10 -3 7 -31 74 -62 148
-31 74 -59 138 -63 141 -4 4 -23 9 -44 13 l-36 7 67 -158z"/>
<path d="M1618 1573 c-25 -6 -23 -12 23 -81 37 -55 44 -61 68 -55 14 3 27 6
28 7 4 3 -88 131 -95 132 -4 1 -15 0 -24 -3z"/>
<path d="M1460 1501 c0 -3 9 -30 20 -59 21 -55 19 -78 -7 -68 -13 5 -14 0 -9
-29 l7 -35 -43 -1 c-24 -1 -47 -1 -52 0 -6 1 -19 0 -31 -3 -18 -5 -20 -11 -17
-41 l4 -35 -101 0 c-83 0 -101 -3 -101 -15 0 -8 -5 -15 -10 -15 -11 0 -7 -124
5 -153 8 -19 0 -161 -10 -178 -4 -5 -41 -9 -84 -9 l-77 0 0 -47 c-1 -120 2
-113 -55 -113 l-50 0 4 -92 c5 -82 4 -91 -9 -74 -8 11 -14 24 -14 29 0 4 -4 5
-10 2 -5 -3 -50 -7 -100 -8 -61 -1 -90 -6 -90 -14 0 -6 9 -32 20 -57 15 -36
24 -46 42 -46 14 0 27 -9 33 -22 9 -21 17 -22 133 -23 119 -2 123 -1 120 19
-3 19 2 21 50 21 l53 -1 -3 90 -3 90 45 1 c45 1 45 1 48 38 2 22 8 37 15 36
34 -4 43 3 46 34 1 17 4 43 6 57 2 14 4 30 4 36 1 5 11 10 24 11 48 1 57 3 57
16 0 8 7 14 16 14 11 0 14 -9 12 -36 l-3 -36 96 -3 c93 -3 95 -2 96 20 0 13 4
47 8 76 l8 54 -39 -2 c-21 -2 -56 -2 -76 -1 -38 1 -38 1 -38 44 l0 42 61 -3
c35 -2 66 1 72 7 10 10 10 58 2 169 -3 43 4 49 54 42 7 -1 25 1 38 5 23 5 24
9 18 41 -3 20 -9 42 -12 50 -4 10 2 14 21 14 14 0 26 4 26 9 0 17 -43 126 -54
138 -11 11 -166 24 -166 14z"/>
<path d="M113 1482 c-13 -2 -23 -5 -23 -8 0 -2 -14 -54 -31 -116 -17 -62 -32
-120 -34 -128 -2 -8 -8 -28 -14 -43 -9 -22 -8 -29 4 -33 8 -3 20 -4 26 -2 11
4 102 316 96 328 -1 3 -12 4 -24 2z"/>
<path d="M1286 1443 c-2 -2 -20 -4 -40 -5 -32 -1 -50 -20 -28 -30 4 -1 23 -22
42 -46 l34 -43 61 4 c33 3 61 5 63 6 2 1 -3 8 -12 16 -8 9 -31 35 -50 59 -31
37 -57 52 -70 39z"/>
<path d="M261 1417 c-5 -12 -19 -44 -30 -70 -20 -47 -20 -72 1 -65 7 3 68 131
68 144 0 1 -7 5 -15 8 -10 4 -19 -2 -24 -17z"/>
<path d="M497 1303 c-3 -4 -8 -30 -12 -58 -4 -27 -9 -58 -11 -67 -3 -20 -5
-19 105 -19 40 0 76 3 80 6 5 5 30 132 27 136 -6 6 -186 8 -189 2z"/>
<path d="M1784 1269 c18 -89 29 -130 38 -135 5 -3 11 -4 13 -3 8 9 -33 163
-44 167 -10 3 -11 -4 -7 -29z"/>
<path d="M233 1256 c-3 -5 -7 -21 -9 -35 -2 -14 -7 -48 -13 -74 -7 -38 -6 -50
5 -54 22 -8 7 -22 -21 -18 -22 2 -28 -4 -27 -25 0 -5 6 -67 18 -185 4 -38 7
-76 7 -82 0 -13 3 -14 30 -17 6 0 29 -53 49 -116 20 -63 43 -133 50 -155 9
-28 19 -40 33 -41 11 -1 52 -4 91 -7 40 -3 74 -4 76 -1 3 2 -3 30 -14 61 -21
65 -18 84 11 76 26 -7 26 -6 1 57 -26 67 -26 70 16 70 31 0 35 3 29 20 -3 11
-8 30 -11 42 -2 13 -8 37 -12 53 l-8 30 -80 0 -79 -1 3 -42 c3 -32 0 -42 -12
-42 -8 0 -17 3 -19 8 -17 27 -26 369 -12 452 l6 38 -51 -1 c-29 -1 -54 -6 -57
-11z"/>
<path d="M1703 1101 c-4 -3 -8 -15 -8 -26 0 -11 -3 -42 -7 -70 -21 -135 -25
-184 -15 -185 4 0 29 0 56 0 l49 0 12 83 c6 45 10 109 8 142 l-3 59 -42 2
c-23 1 -45 -2 -50 -5z"/>
<path d="M484 1069 c-2 -4 -3 -46 -2 -93 l3 -86 110 -1 c61 -1 158 -3 216 -4
l107 -2 -2 73 c-1 58 -4 74 -16 75 -8 1 -53 2 -100 3 -75 1 -85 3 -82 19 2 9
-3 17 -10 17 -7 0 -59 2 -116 3 -57 2 -105 0 -108 -4z"/>
<path d="M1937 933 c-5 -9 -77 -283 -77 -294 0 -4 13 -9 29 -11 29 -4 30 -2
45 56 9 34 27 102 41 151 13 50 25 93 25 98 0 4 -13 7 -29 7 -17 0 -32 -3 -34
-7z"/>
<path d="M1771 789 c-5 -13 -18 -48 -30 -77 -25 -62 -25 -62 -8 -62 20 0 73
138 59 152 -8 8 -14 4 -21 -13z"/>
<path d="M631 760 c-20 -5 -18 -9 24 -62 l45 -57 62 6 c35 3 65 7 67 9 2 2
-15 28 -38 58 -40 54 -41 55 -90 53 -27 -1 -59 -4 -70 -7z"/>
<path d="M1431 650 c-32 -5 -37 -10 -63 -74 -15 -38 -28 -70 -28 -70 0 -1 21
-2 48 -2 26 -1 75 -4 109 -7 l61 -5 36 58 c20 32 36 61 36 64 0 3 -10 6 -21 6
-16 0 -20 5 -16 19 4 17 -2 18 -62 17 -36 0 -81 -3 -100 -6z"/>
<path d="M1190 606 c-53 -28 -61 -34 -43 -40 22 -7 167 56 156 68 -13 13 -50
4 -113 -28z"/>
<path d="M1564 455 c-23 -12 -132 -105 -122 -105 4 0 18 4 32 10 14 5 26 7 26
4 0 -9 -92 -138 -103 -146 -6 -3 -15 -5 -21 -3 -57 19 -81 14 -171 -42 -49
-31 -97 -63 -105 -70 -12 -11 -11 -13 8 -14 12 -1 25 -2 30 -3 4 -1 26 -6 50
-10 46 -9 63 -1 224 105 38 25 71 38 102 41 26 3 48 7 50 9 7 8 72 95 123 166
l52 72 -77 -2 c-43 -1 -87 -6 -98 -12z"/>
<path d="M1075 392 c-14 -25 -24 -46 -23 -48 3 -2 184 -7 204 -5 13 1 58 80
51 88 -2 2 -50 5 -106 7 l-101 3 -25 -45z"/>
<path d="M440 428 c0 -10 129 -98 147 -101 11 -1 52 -20 91 -40 64 -34 76 -37
119 -31 26 4 54 7 61 7 6 0 12 3 12 7 0 8 -120 66 -130 63 -4 -1 -27 -5 -51
-8 -36 -5 -50 -2 -77 17 -18 13 -49 35 -70 50 -32 22 -102 47 -102 36z"/>
<path d="M286 351 c-6 -9 16 -30 99 -91 33 -25 62 -47 65 -50 17 -17 80 -60
89 -60 28 0 16 23 -31 60 -29 23 -60 47 -69 54 -50 40 -130 96 -138 96 -5 0
-12 -4 -15 -9z"/>
<path d="M1113 312 c-78 -3 -83 -4 -103 -31 -11 -16 -20 -31 -20 -34 0 -3 20
-3 45 0 25 2 45 0 45 -5 0 -5 11 -14 23 -19 18 -8 41 -7 93 5 83 19 82 19 60
35 -16 12 -16 14 -2 26 34 29 32 29 -141 23z"/>
</g>
</svg>
